<svg id="Capa_1" enable-background="new 0 0 510 510" height="512" viewBox="0 0 510 510" width="512" xmlns="http://www.w3.org/2000/svg"><path d="m270 44.99v-29.99c0-8.284-6.716-15-15-15s-15 6.716-15 15v29.99c-120.828 7.644-217.5 107.895-217.5 232.01 0 8.284 6.716 15 15 15s15-6.716 15-15c0-13 24.637-27.54 57.607-27.54s57.608 14.54 57.608 27.54c0 8.284 6.716 15 15 15s15-6.716 15-15c0-10.925 17.304-22.934 42.285-26.49v205.66c0 29.682 24.148 53.83 53.83 53.83 27.892 0 53.84-21.492 53.84-56 0-8.284-6.716-15-15-15s-15 6.716-15 15c0 17.188-11.845 26-23.84 26-13.14 0-23.83-10.69-23.83-23.83v-205.66c24.981 3.557 42.285 15.565 42.285 26.49 0 8.284 6.716 15 15 15s15-6.716 15-15c0-13 24.637-27.54 57.607-27.54s57.608 14.54 57.608 27.54c0 8.284 6.716 15 15 15s15-6.716 15-15c0-124.651-97.249-224.405-217.5-232.01zm40.735 187.324c-31.199-16.865-78.836-17.333-111.172-.154-.084.044-.171.086-.255.13-.014.008-.029.015-.043.022 7.02-99.436 36.105-157.812 55.735-157.812 19.207 0 48.619 57.008 55.735 157.814zm-141.691 1.671c-31.085-18.222-78.349-19.177-111.139-3.562 17.385-73.585 75.033-131.78 148.306-149.973-23.873 41.049-34.014 105.687-37.119 153.565-.016-.01-.031-.02-.048-.03zm171.863.03c-3.091-47.667-13.197-112.434-37.115-153.564 73.272 18.194 130.918 76.389 148.303 149.973-34.318-16.345-82.107-13.791-111.188 3.591z"/><path d="m62.382 85c8.284 0 15-6.716 15-15v-7.333c0-8.284-6.716-15-15-15s-15 6.716-15 15v7.333c0 8.284 6.716 15 15 15z"/><path d="m386.667 37.333c8.284 0 15-6.716 15-15v-7.333c0-8.284-6.716-15-15-15s-15 6.716-15 15v7.333c0 8.284 6.716 15 15 15z"/><path d="m451.667 92.333c8.284 0 15-6.716 15-15v-7.333c0-8.284-6.716-15-15-15s-15 6.716-15 15v7.333c0 8.284 6.716 15 15 15z"/></svg>